<svg xmlns="http://www.w3.org/2000/svg" version="1.1" xmlns:xlink="http://www.w3.org/1999/xlink" xmlns:svgjs="http://svgjs.com/svgjs" width="512" height="512" x="0" y="0" viewBox="0 0 32 32" style="enable-background:new 0 0 512 512" xml:space="preserve" class=""><g><g xmlns="http://www.w3.org/2000/svg" id="Layer_16" data-name="Layer 16"><path d="M27,6H15a3,3,0,0,0-2.24-1H5A3,3,0,0,0,2,8V24a3,3,0,0,0,3,3H27a3,3,0,0,0,3-3V9A3,3,0,0,0,27,6Zm1,7V24a1,1,0,0,1-1,1H5a1,1,0,0,1-1-1V8A1,1,0,0,1,5,7h7.76a1,1,0,0,1,.9.55l.89,1.79A3,3,0,0,0,17.24,11H27a1,1,0,0,1,1,1Zm0-3.82A3,3,0,0,0,27,9H17.24a1,1,0,0,1-.9-.55L16.12,8H27a1,1,0,0,1,1,1ZM20,18a1,1,0,0,1-1,1H17v2a1,1,0,0,1-2,0V19H13a1,1,0,0,1,0-2h2V15a1,1,0,0,1,2,0v2h2A1,1,0,0,1,20,18Z" fill="#000000" data-original="#000000" class=""></path></g></g></svg>