<svg xmlns="http://www.w3.org/2000/svg" version="1.1" xmlns:xlink="http://www.w3.org/1999/xlink" xmlns:svgjs="http://svgjs.com/svgjs" width="512" height="512" x="0" y="0" viewBox="0 0 32 32" style="enable-background:new 0 0 512 512" xml:space="preserve" class=""><g><g xmlns="http://www.w3.org/2000/svg" id="Layer_2" data-name="Layer 2"><path d="m27 6h-12a3 3 0 0 0 -2.24-1h-7.76a3 3 0 0 0 -3 3v16a3 3 0 0 0 3 3h22a3 3 0 0 0 3-3v-15a3 3 0 0 0 -3-3zm1 3v.18a3 3 0 0 0 -1-.18h-9.76a1 1 0 0 1 -.9-.55l-.22-.45h10.88a1 1 0 0 1 1 1zm0 15a1 1 0 0 1 -1 1h-22a1 1 0 0 1 -1-1v-16a1 1 0 0 1 1-1h7.76a1 1 0 0 1 .9.55l.89 1.79a3 3 0 0 0 2.69 1.66h9.76a1 1 0 0 1 1 1z" fill="#000000" data-original="#000000" class=""></path></g></g></svg>