<svg xmlns="http://www.w3.org/2000/svg" width="300" height="38.20052856843087" viewBox="0 0 260 38.20052856843087" class="css-1j8o68f"><defs id="SvgjsDefs8035"></defs><g id="SvgjsG8036" featurekey="nameFeature-0" transform="matrix(1.3584825992584229,0,0,1.3584825992584229,0.5433944552535387,-16.193116288722194)" fill="#0496ff"><path d="M10.04 38.6 l-0.72 0 l-0.32 -1.08 l-5.84 -18.76 l-1.6 -5.36 l1.24 0 l6.24 20.32 l0.64 2.16 l0.24 0 l0.76 -1.88 l-0.76 -2.32 l-6.04 -19.68 l-4.28 0 l8.64 28 l2.76 0 l3.64 -8.68 l0.76 -1.84 l1.04 -2.6 l-0.76 -1.8 l-1.08 2.56 l-0.76 1.84 z M5.16 12 l6.2 20.4 l4.4 -10.52 l7.92 18.16 l1.56 0 l-9.48 -21.8 l-4.24 9.76 l-4.84 -16 l-1.52 0 z M25.48 24.36 l3.36 -10.96 l4.08 0 l-0.36 1.16 l-4.08 13.36 l-2.32 7.56 l-9.84 -22.72 l-1.04 0 l-4.24 9.84 l0.64 2.12 l4.12 -9.52 l1.28 2.92 l8.96 20.76 l0.36 0.8 l8.44 -27.68 l-7.08 0 l-3.12 10.36 z M25.72 27.84 l-0.84 -2 l-5.68 -13.08 l-1.56 0 l8.32 19.2 l5.36 -17.48 l-1.52 0 z M54.225 40 c-2.44 0 -4.76 -0.64 -6.96 -1.92 c-4.4 -2.52 -7.12 -7.16 -7.12 -12.12 c0 -2.48 0.64 -4.8 1.92 -7 c2.52 -4.32 7.24 -7.04 12.16 -7.04 c2.44 0 4.8 0.64 7 1.88 c4.4 2.56 7.04 7.32 7.04 12.16 c0 2.44 -0.64 4.72 -1.88 6.92 c-2.56 4.4 -7.2 7.12 -12.16 7.12 z M54.225 13.32 c-2.28 0 -4.4 0.56 -6.32 1.68 c-3.88 2.24 -6.28 6.36 -6.28 10.96 c0 2.28 0.56 4.4 1.68 6.32 c2.24 3.88 6.32 6.28 10.92 6.28 c2.28 0 4.4 -0.56 6.36 -1.68 c3.88 -2.24 6.28 -6.32 6.28 -10.92 c0 -2.28 -0.56 -4.4 -1.68 -6.36 c-2.24 -3.88 -6.48 -6.28 -10.96 -6.28 z M54.225 37.28 c-2 0 -3.88 -0.52 -5.68 -1.52 c-3.56 -2.04 -5.76 -5.76 -5.76 -9.8 c0 -2.04 0.52 -3.92 1.52 -5.68 c2.04 -3.52 5.64 -5.6 9.92 -5.6 c2.16 0 4.12 0.48 5.84 1.44 c3.44 1.92 5.44 5.52 5.44 9.84 c0 2.04 -0.48 3.92 -1.44 5.64 c-1.96 3.48 -5.8 5.68 -9.84 5.68 z M54.225 16.08 c-1.8 0 -3.44 0.44 -4.96 1.32 c-3.08 1.76 -4.96 4.92 -4.96 8.56 c0 1.76 0.44 3.4 1.36 4.92 c1.76 3.08 4.88 5 8.56 5 c1.8 0 3.44 -0.44 4.96 -1.36 c3 -1.76 4.92 -5.04 4.92 -8.56 c0 -1.8 -0.44 -3.48 -1.32 -5 c-1.76 -3.04 -5.08 -4.88 -8.56 -4.88 z M54.225 34.68 c-1.56 0 -3.04 -0.4 -4.36 -1.16 c-2.68 -1.56 -4.4 -4.52 -4.4 -7.56 c0 -1.56 0.4 -3.04 1.2 -4.4 c1.56 -2.72 4.32 -4.28 7.56 -4.28 c1.56 0 3 0.4 4.32 1.16 c2.68 1.56 4.24 4.28 4.24 7.52 c0 1.6 -0.36 3.04 -1.08 4.36 c-1.48 2.64 -4.32 4.36 -7.48 4.36 z M54.225 18.72 c-1.28 0 -2.48 0.32 -3.6 0.96 c-2.24 1.32 -3.68 3.68 -3.68 6.28 c0 1.28 0.32 2.48 0.96 3.56 c1.28 2.24 3.6 3.6 6.32 3.6 c1.32 0 2.56 -0.32 3.64 -0.96 c2.2 -1.28 3.52 -3.64 3.52 -6.2 c0 -1.32 -0.32 -2.52 -0.96 -3.64 c-1.28 -2.24 -3.64 -3.6 -6.2 -3.6 z M92.09000000000002 38.56 l-4.6 0 l-5.52 -10.28 l-3.72 0.04 l0 10.24 l-4.04 0 l0 -26.56 l-1.44 0 l0 28 l6.96 0 l0 -10.28 l1.4 0 l5.48 10.28 l7.88 0 l-5.52 -10.32 l-1.32 0.52 z M82.57000000000002 13.440000000000001 c5.8 0 9.08 2.6 9.08 7.36 c0 4.32 -2.6 6.96 -7.12 7.44 l-1.08 0.12 l5 9.24 l1.64 0 l-4.36 -8.12 c4.8 -0.84 7.36 -3.76 7.36 -8.68 c0 -1.64 -0.36 -3.12 -1.04 -4.44 c-1.6 -2.84 -4.88 -4.36 -9.48 -4.36 l-7.08 0 l0 25.56 l1.44 0 l0 -24.12 l5.64 0 z M82.25000000000001 27.04 c5.48 0 8.08 -1.88 8.08 -6.04 c0 -3.96 -2.72 -6.2 -7.08 -6.2 l-5.04 0 l0 4.2 l4.6 0 c2.12 0 3.2 0.6 3.2 1.8 c0 1.4 -1.32 2.08 -4 2.08 l-2.32 0 l0 -2.48 l-1.48 0 l0 3.92 l3.8 0 c3.56 0 5.44 -1.24 5.44 -3.52 c0 -0.72 -0.16 -1.28 -0.52 -1.72 c-0.68 -1 -2.04 -1.48 -4.12 -1.48 l-3.12 0 l0 -1.36 l3.56 0 c3.56 0 5.64 1.72 5.64 4.76 c0 3.16 -2.12 4.64 -6.64 4.64 l-4 0 l0 1.4 l4 0 z M119.43500000000002 16.04 c-2.4 -2.52 -5.48 -4 -8.48 -4 l-11.72 0 l0 1.44 l11.72 0.04 c1.88 0 3.68 0.6 5.4 1.76 c3.36 2.36 5.6 6.6 5.6 10.72 c0 2.16 -0.48 4.16 -1.48 6.04 c-2 3.72 -6.04 6.44 -9.52 6.44 l-10.28 0 l0 -22.44 l9.96 0.04 c1.44 0 2.84 0.44 4.16 1.36 c2.68 1.8 4.44 5.24 4.44 8.56 c0 2.44 -1.04 4.96 -2.92 6.92 c-1.76 1.76 -3.88 2.88 -5.64 2.88 l-4.56 0 l0.04 -15.8 l-1.4 0 l-0.04 16.52 l0 0.72 l5.96 0 c2.2 0 4.76 -1.24 6.72 -3.32 c2.12 -2.28 3.28 -5.08 3.28 -7.92 c0 -2.88 -1.12 -5.76 -3.16 -8 c-2.2 -2.2 -4.6 -3.4 -6.88 -3.4 l-11.4 0 l0 25.36 l11.72 0 c2.88 0 6 -1.48 8.36 -4 c2.6 -2.68 4.04 -6.24 4.04 -9.96 s-1.36 -7.24 -3.92 -9.96 z M110.51500000000001 34.519999999999996 c1.12 0 2.28 -0.44 3.52 -1.28 c2.44 -1.72 4 -4.6 4 -7.28 c0 -1.44 -0.36 -2.84 -1.04 -4.2 c-1.4 -2.68 -3.92 -4.36 -6.48 -4.36 l-8.6 0.04 l0.04 19.88 l1.44 0 l0 -18.48 l7.12 -0.04 c0.92 0 1.88 0.36 2.88 1.04 c2.04 1.44 3.2 3.68 3.2 6.12 c0 1.64 -0.76 3.48 -2 4.88 s-2.76 2.24 -4.08 2.24 l-2.84 0 l0 1.44 l2.84 0 z M128.38 12 l4.2 0 l0 25.32 l-1.44 0 l0 -23.88 l-1.32 0 l0 25.12 l4.04 0 l0 -26.56 l1.44 0 l0 28 l-6.92 0 l0 -28 z M141.365 12 l1.44 0 l0 26.56 l3.92 0 l0 -10 l9.36 0 l0 -1.32 l-9.32 0 l0 -1.44 l10.76 0 l0 4.2 l-9.36 0 l0 10 l-6.8 0 l0 -28 z M144.04500000000002 12 l15.44 0 l0 6.8 l-10 0 l0 -1.44 l8.56 0 l0 -3.92 l-12.6 0 l0 24 l-1.4 0 l0 -25.44 z M146.72500000000002 14.600000000000001 l10.08 0 l0 1.44 l-8.64 0 l0 7.08 l9.36 0 l0 1.48 l-10.8 0 l0 -10 z M176.75 37.44 l1.44 0 l-0.04 -11.64 l8.52 -12.36 l1.56 0 l-8.68 12.44 l0 12.68 l-4.12 0 l0.04 -12.68 l-9.72 -13.88 l-1.76 0 l9.96 14.32 l0 13.68 l7.04 0 l0 -13.68 l10 -14.32 l-5.04 0 l-9.2 13.32 l0 12.12 z M182.63 12 l-6.68 9.8 l-5.92 -8.36 l1.56 0 l4.48 6.32 l0.88 -1.28 l-4.6 -6.48 l-5.04 0 l7.96 11.32 l0.68 1.04 l8.44 -12.36 l-1.76 0 z"></path></g></svg>